# xmcd
#
# Track frame offsets:
#	183
#	18480
#	33608
#
# Disc length: 652 seconds
#
# Revision: 2
# Processed by: cddbd v1.5.2PL0 Copyright (c) Steve Scherf et al.
# Submitted via: audiograbber 1.83.01
#
DISCID=1e028a03
DTITLE=Deana Carter - Angel Without A Prayer, CD Single
DYEAR=1995
DGENRE=
TTITLE0=Angel Without A Prayer (Radio Edit)
TTITLE1=We Share A Wall
TTITLE2=Rita Valentine
EXTD=
EXTT0=radio edit\n
EXTT1=
EXTT2=
PLAYORDER=
